<svg id="Dumbbell" xmlns="http://www.w3.org/2000/svg" width="27.199" height="16.999" viewBox="0 0 27.199 16.999">
  <path id="Path_4" data-name="Path 4" d="M25.6,5.843h-.531V3.453a2.124,2.124,0,0,0-3.242-1.807A2.128,2.128,0,0,0,19.761,0h0a2.128,2.128,0,0,0-2.125,2.125V5.843H9.562V2.125a2.125,2.125,0,0,0-4.2-.479A2.124,2.124,0,0,0,2.124,3.453v2.39H1.593A1.6,1.6,0,0,0,0,7.437V9.562a1.6,1.6,0,0,0,1.594,1.594h.531v2.39a2.124,2.124,0,0,0,3.242,1.807A2.128,2.128,0,0,0,7.436,17h0a2.128,2.128,0,0,0,2.125-2.125V11.156h8.073v3.719a2.125,2.125,0,0,0,4.2.479,2.124,2.124,0,0,0,3.242-1.807v-2.39H25.6A1.6,1.6,0,0,0,27.2,9.562V7.437A1.6,1.6,0,0,0,25.6,5.843Zm-23.48,4.25H1.593a.532.532,0,0,1-.531-.531V7.437a.532.532,0,0,1,.531-.531h.531Zm3.187,3.453a1.062,1.062,0,0,1-2.125,0V3.453a1.062,1.062,0,0,1,2.125,0ZM8.5,14.874a1.064,1.064,0,0,1-1.062,1.062h0a1.064,1.064,0,0,1-1.062-1.062V2.125a1.063,1.063,0,0,1,2.126,0Zm9.133-6.906H13.917a.531.531,0,1,0,0,1.062h3.715v1.062H9.559V6.906h8.073Zm3.191,6.906a1.063,1.063,0,0,1-2.126,0V8.527a.312.312,0,0,1,0,.034V8.438a.312.312,0,0,1,0,.034V2.125A1.064,1.064,0,0,1,19.76,1.062h0a1.064,1.064,0,0,1,1.062,1.062Zm3.187-1.328a1.062,1.062,0,0,1-2.125,0V3.453a1.062,1.062,0,0,1,2.125,0Zm2.125-3.984a.532.532,0,0,1-.531.531h-.531V6.906H25.6a.532.532,0,0,1,.531.531Zm0,0" transform="translate(0.001 0)" fill="#fff"/>
  <path id="Path_5" data-name="Path 5" d="M212.547,151.062a.531.531,0,0,1,0-1.062h0a.531.531,0,1,1,0,1.062Zm0,0" transform="translate(-200.753 -142.032)" fill="#fff"/>
</svg>
