<svg xmlns="http://www.w3.org/2000/svg" width="22.272" height="22.416" viewBox="0 0 22.272 22.416">
  <g id="Food" transform="translate(0.5 0.692)">
    <g id="Group_3" data-name="Group 3" transform="translate(1.173)">
      <g id="Group_2" data-name="Group 2">
        <path id="Path_9" data-name="Path 9" d="M48,17.934,39.73,9.663,30.066,0h-.755l-.154.392a6.928,6.928,0,0,0-.5,3.059A4.32,4.32,0,0,0,29.865,6.21l7.544,7.544,1-1,6.974,7.8A1.855,1.855,0,0,0,48,17.934Z" transform="translate(-28.636)" fill="none" stroke="#3a48b1" stroke-width="1"/>
      </g>
    </g>
    <g id="Group_5" data-name="Group 5" transform="translate(0 12.007)">
      <g id="Group_4" data-name="Group 4">
        <path id="Path_10" data-name="Path 10" d="M6.6,291.442.7,297.35a1.855,1.855,0,0,0,2.623,2.623l5.908-5.908Z" transform="translate(-0.153 -291.442)" fill="none" stroke="#3a48b1" stroke-width="1"/>
      </g>
    </g>
    <g id="Group_7" data-name="Group 7" transform="translate(11.296 0.015)">
      <g id="Group_6" data-name="Group 6">
        <path id="Path_11" data-name="Path 11" d="M283.249,3.858,279.9,7.21l-.874-.874,3.351-3.351L281.5,2.11l-3.351,3.351-.874-.874,3.351-3.351-.874-.874L275.38,4.732a3.086,3.086,0,0,0-.9,2,1.782,1.782,0,0,1-.127.558l2.84,2.84a1.779,1.779,0,0,1,.558-.127,3.085,3.085,0,0,0,2-.9l4.371-4.371Z" transform="translate(-274.354 -0.361)" fill="none" stroke="#3a48b1" stroke-width="1"/>
      </g>
    </g>
  </g>
</svg>
