<svg xmlns="http://www.w3.org/2000/svg" width="24.439" height="21.575" viewBox="0 0 24.439 21.575">
  <g id="Heart" transform="translate(0 -30)">
    <g id="Group_1" data-name="Group 1" transform="translate(0 30)">
      <path id="Path_2" data-name="Path 2" d="M17.947,30a5.786,5.786,0,0,0-3.614,1.249,8.232,8.232,0,0,0-2.114,2.543,8.231,8.231,0,0,0-2.114-2.543A5.786,5.786,0,0,0,6.492,30C2.791,30,0,33.027,0,37.041c0,4.337,3.482,7.3,8.753,11.8.9.763,1.91,1.627,2.964,2.55a.764.764,0,0,0,1.005,0c1.055-.922,2.069-1.787,2.965-2.55,5.27-4.491,8.752-7.458,8.752-11.8C24.439,33.027,21.648,30,17.947,30Z" transform="translate(0 -30)" fill="#fff"/>
    </g>
  </g>
</svg>
