<svg id="Location" xmlns="http://www.w3.org/2000/svg" width="17" height="22.193" viewBox="0 0 17 22.193">
  <g id="Path_23" data-name="Path 23" fill="none">
    <path d="M8.5,0A8.261,8.261,0,0,1,17,8c0,4.418-8.5,14.193-8.5,14.193S0,12.418,0,8A8.261,8.261,0,0,1,8.5,0Z" stroke="none"/>
    <path d="M 8.5 0.9999961853027344 C 4.364489555358887 0.9999961853027344 1 4.140186309814453 1 7.999996185302734 C 1 8.91115665435791 1.527009963989258 11.18314647674561 5.05659008026123 16.16202545166016 C 6.371565818786621 18.01695442199707 7.699592590332031 19.67224311828613 8.5 20.64054107666016 C 9.300407409667969 19.67224311828613 10.62843418121338 18.01695442199707 11.94340991973877 16.16202545166016 C 15.47299003601074 11.18314647674561 16 8.91115665435791 16 7.999996185302734 C 16 4.140186309814453 12.6355094909668 0.9999961853027344 8.5 0.9999961853027344 M 8.5 -3.814697265625e-06 C 13.19441986083984 -3.814697265625e-06 17 3.58172607421875 17 7.999996185302734 C 17 12.4182767868042 8.5 22.19299697875977 8.5 22.19299697875977 C 8.5 22.19299697875977 0 12.4182767868042 0 7.999996185302734 C 0 3.58172607421875 3.805580139160156 -3.814697265625e-06 8.5 -3.814697265625e-06 Z" stroke="none" fill="#253946"/>
  </g>
  <g id="Ellipse_2" data-name="Ellipse 2" transform="translate(5 5)" fill="none" stroke="#253946" stroke-width="1">
    <circle cx="3.5" cy="3.5" r="3.5" stroke="none"/>
    <circle cx="3.5" cy="3.5" r="3" fill="none"/>
  </g>
</svg>
