<svg xmlns="http://www.w3.org/2000/svg" width="17.222" height="13.041" viewBox="0 0 17.222 13.041">
  <g id="Mail" transform="translate(0.25 -63.75)">
    <g id="Group_23" data-name="Group 23" transform="translate(0 64)">
      <path id="Path_30" data-name="Path 30" d="M15.328,64H1.393A1.4,1.4,0,0,0,0,65.393v9.754a1.4,1.4,0,0,0,1.393,1.393H15.328a1.4,1.4,0,0,0,1.393-1.393V65.393A1.4,1.4,0,0,0,15.328,64Zm-13.935.7H15.328a.664.664,0,0,1,.145.029c-1.206,1.1-5.207,4.764-6.607,6.025a.7.7,0,0,1-1.011,0c-1.4-1.261-5.4-4.921-6.606-6.025A.668.668,0,0,1,1.393,64.7ZM.7,75.148V65.393A.673.673,0,0,1,.736,65.2c.923.845,3.715,3.4,5.524,5.044-1.8,1.55-4.6,4.2-5.527,5.084A.671.671,0,0,1,.7,75.148Zm14.631.7H1.393a.667.667,0,0,1-.157-.032c.962-.917,3.771-3.579,5.544-5.1l.608.551a1.392,1.392,0,0,0,1.944,0l.609-.551c1.772,1.516,4.582,4.178,5.544,5.1A.666.666,0,0,1,15.328,75.844Zm.7-.7a.673.673,0,0,1-.037.182c-.931-.888-3.723-3.535-5.527-5.084,1.81-1.646,4.6-4.2,5.524-5.044a.673.673,0,0,1,.039.193Z" transform="translate(0 -64)" fill="#cecece" stroke="#cecece" stroke-width="0.5"/>
    </g>
  </g>
</svg>
