<svg id="Pool" xmlns="http://www.w3.org/2000/svg" width="24.165" height="20.389" viewBox="0 0 24.165 20.389">
  <path id="Path_7" data-name="Path 7" d="M23.411,377.136a2.455,2.455,0,0,1-1.5-.459,4.182,4.182,0,0,0-4.553,0,2.68,2.68,0,0,1-3,0A3.949,3.949,0,0,0,12.083,376a3.948,3.948,0,0,0-2.276.674,2.454,2.454,0,0,1-1.5.459,2.455,2.455,0,0,1-1.5-.459A3.949,3.949,0,0,0,4.532,376a3.949,3.949,0,0,0-2.276.674,2.455,2.455,0,0,1-1.5.459.755.755,0,0,0,0,1.51,3.948,3.948,0,0,0,2.276-.674,2.454,2.454,0,0,1,1.5-.459,2.454,2.454,0,0,1,1.5.459,3.949,3.949,0,0,0,2.276.674,3.948,3.948,0,0,0,2.276-.674,2.454,2.454,0,0,1,1.5-.459,2.455,2.455,0,0,1,1.5.459,4.181,4.181,0,0,0,4.553,0,2.68,2.68,0,0,1,3,0,3.949,3.949,0,0,0,2.277.674.755.755,0,1,0,0-1.51Z" transform="translate(-0.001 -358.257)" fill="#fff"/>
  <path id="Path_8" data-name="Path 8" d="M23.41,15.106a2.455,2.455,0,0,1-1.5-.459,4.182,4.182,0,0,0-4.553,0,2.455,2.455,0,0,1-1.5.459,2.6,2.6,0,0,1-.755-.1V3.024a1.51,1.51,0,0,1,3.021,0v.755h-1.51a.755.755,0,1,0,0,1.51h6.8a.755.755,0,1,0,0-1.51H19.634V3.024a3.021,3.021,0,0,0-6.041,0V7.177H7.552V3.024a1.51,1.51,0,0,1,3.021,0v.755H9.062a.755.755,0,1,0,0,1.51h2.265a.755.755,0,0,0,.755-.755V3.024a3.021,3.021,0,0,0-6.041,0v.755H.755a.755.755,0,1,0,0,1.51H6.041v8.958a3.917,3.917,0,0,0-1.511-.273,3.949,3.949,0,0,0-2.276.674,2.455,2.455,0,0,1-1.5.459.755.755,0,1,0,0,1.51,3.948,3.948,0,0,0,2.276-.674,2.455,2.455,0,0,1,1.5-.459,3.245,3.245,0,0,1,1.9.691,3.833,3.833,0,0,0,1.872.442,3.948,3.948,0,0,0,2.276-.674,2.454,2.454,0,0,1,1.5-.459,3.247,3.247,0,0,1,1.9.691,3.832,3.832,0,0,0,1.871.442,3.949,3.949,0,0,0,2.276-.674,2.68,2.68,0,0,1,3,0,3.949,3.949,0,0,0,2.277.674.755.755,0,0,0,0-1.51ZM13.593,8.687v2.265H7.552V8.687Zm-1.511,5.286a3.948,3.948,0,0,0-2.276.674,2.454,2.454,0,0,1-1.5.459,2.6,2.6,0,0,1-.755-.1V12.463h6.041v1.784A3.916,3.916,0,0,0,12.082,13.973Z" transform="translate(0 -0.003)" fill="#fff"/>
</svg>
