<svg xmlns="http://www.w3.org/2000/svg" width="76.903" height="10" viewBox="0 0 76.903 10">
  <g id="rating" transform="translate(0 -210.746)">
    <g id="Group_9" data-name="Group 9" transform="translate(0 210.746)">
      <g id="Group_8" data-name="Group 8" transform="translate(0)">
        <path id="Path_12" data-name="Path 12" d="M10.444,214.488a.721.721,0,0,0-.582-.49l-2.751-.4-1.229-2.484a.75.75,0,0,0-1.291,0L3.361,213.6.617,214a.72.72,0,0,0-.4,1.228l1.991,1.94-.47,2.737a.72.72,0,0,0,1.046.759l2.452-1.293,2.459,1.293a.718.718,0,0,0,.335.083.732.732,0,0,0,.424-.137.723.723,0,0,0,.287-.705l-.469-2.737,1.991-1.94A.719.719,0,0,0,10.444,214.488Z" transform="translate(0 -210.746)" fill="#ffcd00"/>
      </g>
    </g>
    <g id="Group_11" data-name="Group 11" transform="translate(16.606 210.746)">
      <g id="Group_10" data-name="Group 10" transform="translate(0 0)">
        <path id="Path_13" data-name="Path 13" d="M114.733,214.488a.721.721,0,0,0-.582-.49l-2.751-.4-1.229-2.484a.75.75,0,0,0-1.291,0L107.65,213.6l-2.745.4a.72.72,0,0,0-.4,1.228l1.991,1.94-.47,2.737a.72.72,0,0,0,1.046.759l2.452-1.293,2.459,1.293a.718.718,0,0,0,.335.083.732.732,0,0,0,.424-.137.723.723,0,0,0,.287-.705l-.469-2.737,1.991-1.94A.719.719,0,0,0,114.733,214.488Z" transform="translate(-104.289 -210.746)" fill="#ffcd00"/>
      </g>
    </g>
    <g id="Group_13" data-name="Group 13" transform="translate(33.212 210.746)">
      <g id="Group_12" data-name="Group 12" transform="translate(0 0)">
        <path id="Path_14" data-name="Path 14" d="M219.022,214.488a.721.721,0,0,0-.582-.49l-2.751-.4-1.229-2.484a.75.75,0,0,0-1.291,0l-1.229,2.484-2.745.4a.72.72,0,0,0-.4,1.228l1.991,1.94-.47,2.737a.72.72,0,0,0,1.046.759l2.451-1.293,2.459,1.293a.718.718,0,0,0,.335.083.732.732,0,0,0,.424-.137.723.723,0,0,0,.287-.705l-.469-2.737,1.991-1.94A.719.719,0,0,0,219.022,214.488Z" transform="translate(-208.578 -210.746)" fill="#ffcd00"/>
      </g>
    </g>
    <g id="Group_15" data-name="Group 15" transform="translate(49.818 210.746)">
      <g id="Group_14" data-name="Group 14" transform="translate(0 0)">
        <path id="Path_15" data-name="Path 15" d="M323.311,214.488a.721.721,0,0,0-.582-.49l-2.751-.4-1.229-2.484a.75.75,0,0,0-1.291,0l-1.229,2.484-2.745.4a.72.72,0,0,0-.4,1.228l1.991,1.94-.47,2.737a.72.72,0,0,0,1.046.759l2.451-1.293,2.459,1.293a.718.718,0,0,0,.335.083.732.732,0,0,0,.424-.137.723.723,0,0,0,.287-.705l-.469-2.737,1.991-1.94A.719.719,0,0,0,323.311,214.488Z" transform="translate(-312.867 -210.746)" fill="#ffcd00"/>
      </g>
    </g>
    <g id="Group_17" data-name="Group 17" transform="translate(66.424 210.746)">
      <g id="Group_16" data-name="Group 16">
        <path id="Path_16" data-name="Path 16" d="M427.6,214.488a.722.722,0,0,0-.582-.49l-2.751-.4-1.229-2.484a.75.75,0,0,0-1.291,0l-1.229,2.484-2.745.4a.72.72,0,0,0-.4,1.228l1.991,1.94-.47,2.737a.721.721,0,0,0,1.046.759l2.452-1.293,2.459,1.293a.72.72,0,0,0,1.044-.759l-.469-2.737,1.991-1.94A.72.72,0,0,0,427.6,214.488Z" transform="translate(-417.156 -210.746)" fill="#ffcd00"/>
      </g>
    </g>
  </g>
</svg>
