<svg xmlns="http://www.w3.org/2000/svg" width="14.402" height="17.928" viewBox="0 0 14.402 17.928">
  <path id="User" d="M64.153,31.817a16.157,16.157,0,0,0,6.9,1.8,14.611,14.611,0,0,0,6.908-1.8.294.294,0,0,0,.143-.252,9.459,9.459,0,0,0-2.048-6.112,6.658,6.658,0,0,0-3.362-2.191,3.819,3.819,0,1,0-3.282,0,6.659,6.659,0,0,0-3.362,2.191A9.459,9.459,0,0,0,64,31.559a.294.294,0,0,0,.153.258Zm3.666-12.009a3.232,3.232,0,1,1,3.232,3.232,3.232,3.232,0,0,1-3.232-3.232ZM66.5,25.825a5.815,5.815,0,0,1,9.106,0,8.82,8.82,0,0,1,1.909,5.563,14.378,14.378,0,0,1-6.462,1.64,15.745,15.745,0,0,1-6.462-1.647A8.818,8.818,0,0,1,66.5,25.825Z" transform="translate(-63.85 -15.838)" fill="#253946" stroke="#253946" stroke-width="0.3"/>
</svg>
